<svg xmlns="http://www.w3.org/2000/svg" width="16" height="16" fill="currentColor" class="bi bi-pinterest" viewBox="0 0 16 16">
            <path d="M8 0a8 8 0 0 0-2.915 15.452c-.07-.633-.134-1.606.027-2.297.146-.625.938-3.977.938-3.977s-.239-.479-.239-1.187c0-1.113.645-1.943 1.448-1.943.682 0 1.012.512 1.012 1.127 0 .686-.437 1.712-.663 2.663-.188.796.4 1.446 1.185 1.446 1.422 0 2.515-1.5 2.515-3.664 0-1.915-1.377-3.254-3.342-3.254-2.276 0-3.772 1.734-3.772 3.55 0 .645.243 1.328.545 1.713.067.084.077.163.058.244-.02.087-.074.297-.094.384-.02.087-.088.112-.138.062-.52-.25-.868-.82-.868-1.434 0-1.955 1.42-3.77 4.186-3.77 2.27 0 3.914 1.658 3.914 3.564 0 2.16-1.227 3.882-3.01 3.882-.852 0-1.62-.454-1.887-1.004-.158.63-.283 1.178-.451 1.84-.21.832-.522 1.582-.839 2.234C6.474 15.72 7.22 16 8 16a8 8 0 0 0 8-8c0-2.952-1.41-5.5-3.585-7.085z"/>
          </svg>